<?xml version="1.0" standalone="no"?>
<!DOCTYPE svg PUBLIC "-//W3C//DTD SVG 1.1//EN" "http://www.w3.org/Graphics/SVG/1.1/DTD/svg11.dtd" >
<svg xmlns="http://www.w3.org/2000/svg">
<metadata></metadata>
<defs>
<font id="pontiacregular" horiz-adv-x="1329" >
<font-face units-per-em="2048" ascent="1536" descent="-512" />
<missing-glyph horiz-adv-x="718" />
<glyph horiz-adv-x="0" />
<glyph horiz-adv-x="682" />
<glyph unicode=" "  horiz-adv-x="718" />
<glyph unicode="&#x09;" horiz-adv-x="718" />
<glyph unicode="&#xa0;" horiz-adv-x="718" />
<glyph unicode="!" horiz-adv-x="514" d="M145 100q0 50 34 84.5t85 34.5t86 -34.5t35 -84.5t-35 -85t-86 -35t-85 35t-34 85zM176 387v1149h182v-1149h-182z" />
<glyph unicode="&#x22;" horiz-adv-x="919" d="M182 932v604h172v-604h-172zM551 932v604h172v-604h-172z" />
<glyph unicode="#" horiz-adv-x="1247" d="M78 473v162h227l47 266h-213v162h242l86 473h160l-84 -473h268l86 473h160l-84 -473h209v-162h-238l-47 -266h213v-162h-242l-84 -473h-161l84 473h-269l-84 -473h-161l83 473h-198zM467 635h268l47 266h-268z" />
<glyph unicode="$" horiz-adv-x="1167" d="M72 289l141 110q168 -252 401 -243q116 5 197.5 74t81.5 171q0 34 -9.5 63t-24 52.5t-43 46t-55.5 39t-73.5 37.5t-84 36t-99.5 38q-77 29 -132 55.5t-107.5 64t-84 80.5t-50.5 103t-19 133q0 85 42 164t129 137.5t201 71.5v186h179v-188q229 -28 378 -213l-149 -111 q-75 83 -154.5 115t-189.5 32q-116 0 -183 -56t-67 -136q0 -29 3 -49t13 -44.5t31 -44t55 -42.5t87 -47t126 -50q109 -39 186 -78t146.5 -95t105 -131.5t35.5 -170.5q0 -164 -117.5 -287.5t-305.5 -140.5v-186h-179v197q-246 48 -411 307z" />
<glyph unicode="%" horiz-adv-x="1538" d="M49 1174q0 141 106 246.5t246 105.5q146 0 249.5 -103.5t103.5 -248.5q0 -149 -102.5 -252t-250.5 -103t-250 103t-102 252zM211 0q167 281 442.5 734t458.5 761h195q-155 -259 -431.5 -716.5t-467.5 -778.5h-197zM211 1174q0 -77 55.5 -135t134.5 -58t136 56t57 137 q0 77 -57.5 133.5t-135.5 56.5q-75 0 -132.5 -56t-57.5 -134zM780 324q0 141 106.5 246.5t246.5 105.5q146 0 249 -103.5t103 -248.5q0 -149 -102 -252t-250 -103t-250.5 103t-102.5 252zM942 324q0 -77 56 -135t135 -58t135.5 56t56.5 137q0 77 -57 133.5t-135 56.5 q-75 0 -133 -56t-58 -134z" />
<glyph unicode="&#x26;" horiz-adv-x="1359" d="M94 440q0 103 46.5 190t123 152.5t199.5 139.5q-83 103 -120.5 171t-37.5 128q0 149 104.5 242t264.5 93q142 0 233.5 -92.5t91.5 -244.5q0 -45 -15.5 -88t-39 -76.5t-62.5 -70t-74 -62.5t-85 -60l289 -409q24 34 46.5 73.5t33.5 62.5l10 23h186q-84 -178 -164 -311 q28 -41 99.5 -141.5t111.5 -159.5h-231l-109 158q-80 -73 -191.5 -128t-217.5 -55q-132 0 -244 58.5t-180 166.5t-68 240zM274 440q0 -125 94 -202.5t220 -77.5q49 0 98.5 15t85 37t64 43.5t42.5 36.5l15 15l-334 467q-132 -71 -208.5 -152t-76.5 -182zM475 1237 q0 -80 139 -240q117 61 165 119t48 121q0 64 -46.5 113t-114.5 49q-74 0 -132.5 -46t-58.5 -116z" />
<glyph unicode="'" horiz-adv-x="382" d="M109 932v604h172v-604h-172z" />
<glyph unicode="(" horiz-adv-x="555" d="M23 631q0 579 284 903l119 -119q-120 -183 -174.5 -358t-54.5 -428q0 -445 233 -805l-123 -117q-284 369 -284 924z" />
<glyph unicode=")" horiz-adv-x="555" d="M125 -174q233 360 233 805q0 253 -54.5 428t-174.5 358l119 119q284 -324 284 -903q0 -555 -284 -924z" />
<glyph unicode="*" horiz-adv-x="905" d="M78 1200l47 156l254 -82v264h164v-262l252 80l49 -156l-271 -74l172 -217q-19 -13 -61 -44t-68 -48l-155 217l-160 -219l-129 92l164 219z" />
<glyph unicode="+" horiz-adv-x="1087" d="M84 662v169h391v375h168v-375h389v-169h-389v-379h-168v379h-391z" />
<glyph unicode="," horiz-adv-x="473" d="M12 -328l185 553h225l-246 -555z" />
<glyph unicode="-" horiz-adv-x="839" d="M133 526v179h567v-179h-567z" />
<glyph unicode="." horiz-adv-x="325" d="M86 104q0 54 35.5 89.5t89.5 35.5t89.5 -35.5t35.5 -89.5t-35.5 -89t-89.5 -35t-89.5 35t-35.5 89z" />
<glyph unicode="/" horiz-adv-x="1044" d="M61 0l725 1536h195q-140 -297 -364.5 -774t-358.5 -762h-197z" />
<glyph unicode="0" horiz-adv-x="1478" d="M74 745q0 161 48 304t133.5 248.5t210.5 167t271 61.5q152 0 279.5 -61.5t212 -167t131.5 -248t47 -304.5q0 -161 -47 -302.5t-131.5 -246.5t-212 -166t-279.5 -61q-151 0 -277 61t-210 166t-130 246.5t-46 302.5zM254 745q0 -118 33 -224.5t93.5 -189t154 -131 t206.5 -48.5t207 48.5t154.5 131t93.5 189t33 224.5q0 124 -33 232.5t-94 189.5t-154 127.5t-207 46.5q-150 0 -262 -80.5t-168.5 -214.5t-56.5 -301z" />
<glyph unicode="1" horiz-adv-x="731" d="M33 1321v174h528v-1495h-182v1321h-346z" />
<glyph unicode="2" horiz-adv-x="1167" d="M66 995q0 117 40 217t108.5 167.5t159.5 106t193 38.5q107 0 197.5 -40.5t148 -106.5t89.5 -149t32 -171q0 -38 -7.5 -75t-17 -68t-32 -69.5t-40 -65t-54 -72t-60 -73.5t-72.5 -85t-79 -92q-21 -25 -82.5 -94t-112.5 -125l-51 -56h676v-182h-981v98q240 282 430 488 q9 10 57.5 62.5t70.5 77t62.5 76.5t60.5 87.5t37 82t17 85.5q0 125 -80 207t-207 82q-56 0 -110 -18t-104.5 -56t-81.5 -110t-31 -167h-176z" />
<glyph unicode="3" horiz-adv-x="1105" d="M33 287l149 86q53 -91 123.5 -148.5t179.5 -68.5q150 -15 262.5 71t112.5 215q-1 66 -29.5 123t-74.5 96.5t-107.5 69.5t-124 47t-127.5 25v133l387 387h-618v172h846v-172l-396 -393q420 -134 420 -494q0 -143 -81 -255.5t-211.5 -166.5t-276.5 -39q-85 10 -158.5 42.5 t-126 80t-87.5 93t-62 96.5z" />
<glyph unicode="4" horiz-adv-x="1105" d="M23 195q123 276 323 723t258 577h189l-492 -1116h551v221h172v-600h-172v195h-829z" />
<glyph unicode="5" horiz-adv-x="1146" d="M68 299l161 72q18 -37 47 -72.5t69 -69t93.5 -54.5t110.5 -21q149 0 246.5 90t97.5 225q0 74 -26 131.5t-68.5 93t-101 58.5t-117 32t-123.5 9q-120 0 -242 -52l-111 60v694h857v-172h-682v-383q75 27 190 27q89 0 172.5 -16.5t162.5 -54.5t137.5 -95t94 -144t35.5 -194 q0 -138 -68 -251t-188 -177t-266 -64q-88 0 -170.5 32t-142.5 83.5t-102.5 105.5t-65.5 107z" />
<glyph unicode="6" horiz-adv-x="1126" d="M66 469q0 156 96 346l348 680h195l-293 -582q62 41 153 41q126 0 240.5 -65.5t185 -178t70.5 -241.5q0 -136 -66.5 -250.5t-180.5 -181t-249 -66.5q-136 0 -251 66.5t-181.5 181t-66.5 250.5zM238 475q0 -134 94 -228.5t229 -94.5q132 0 227 95t95 228q0 131 -94.5 222 t-227.5 91q-135 0 -229 -90.5t-94 -222.5z" />
<glyph unicode="7" horiz-adv-x="1101" d="M37 1317v178h1050l-657 -1495h-197l582 1317h-778z" />
<glyph unicode="8" horiz-adv-x="1103" d="M74 446q0 138 71.5 252.5t190.5 175.5q-67 50 -105 125.5t-38 163.5q0 151 104.5 256t253.5 105q151 0 255.5 -105t104.5 -256q0 -88 -39 -163t-106 -126q119 -61 191.5 -176t72.5 -252q0 -97 -38 -185.5t-102 -152.5t-153 -101.5t-186 -37.5q-198 0 -337.5 139.5 t-139.5 337.5zM252 457q0 -125 87 -212t212 -87t213 87.5t88 211.5q0 125 -88 213t-213 88q-124 0 -211.5 -88t-87.5 -213zM358 1159q0 -82 55.5 -137t137.5 -55q83 0 138.5 55t55.5 137q0 83 -55.5 139t-138.5 56q-82 0 -137.5 -56t-55.5 -139z" />
<glyph unicode="9" horiz-adv-x="1126" d="M66 1026q0 136 66 250.5t180 181t249 66.5q136 0 251 -66.5t182 -181t67 -250.5q0 -156 -96 -346l-349 -680h-194l293 582q-59 -39 -150 -39q-212 0 -355.5 137.5t-143.5 345.5zM238 1028q0 -131 96 -222t229 -91q135 0 227.5 90.5t92.5 222.5q0 134 -94.5 229t-229.5 95 q-132 0 -226.5 -95.5t-94.5 -228.5z" />
<glyph unicode=":" horiz-adv-x="419" d="M92 100q0 50 34 84.5t85 34.5t86 -34.5t35 -84.5t-35 -85t-86 -35t-85 35t-34 85zM92 997q0 50 34 84.5t85 34.5t86 -34.5t35 -84.5t-35 -85t-86 -35t-85 35t-34 85z" />
<glyph unicode=";" horiz-adv-x="520" d="M-43 -328l184 553h226l-246 -555zM131 995q0 54 35.5 89.5t89.5 35.5t89.5 -35.5t35.5 -89.5t-35.5 -89.5t-89.5 -35.5t-89.5 35.5t-35.5 89.5z" />
<glyph unicode="&#x3c;" horiz-adv-x="839" d="M119 750l356 532h217l-356 -532l356 -533h-217z" />
<glyph unicode="=" horiz-adv-x="1124" d="M166 383v182h807v-182h-807zM166 860v182h807v-182h-807z" />
<glyph unicode="&#x3e;" horiz-adv-x="856" d="M221 217l357 533l-357 532h217l357 -532l-357 -533h-217z" />
<glyph unicode="?" horiz-adv-x="1136" d="M55 1065q0 213 143 357.5t363 144.5q232 0 365 -124.5t133 -346.5q0 -45 -11.5 -88t-26 -73.5t-43.5 -69t-46.5 -57.5t-54 -56.5t-48.5 -49.5q-14 -15 -40.5 -41.5t-39.5 -40.5t-31.5 -38t-27 -44.5t-15.5 -50t-7 -63.5v-37h-179v37q0 62 15.5 116.5t47.5 101.5t58 77.5 t70.5 74.5t60.5 62q6 7 29.5 32t28.5 31t22.5 26.5t22 29t15 26t13.5 30t6 30t3 35.5q0 81 -26 139.5t-72.5 91t-101 47.5t-120.5 15q-147 0 -237.5 -87.5t-90.5 -236.5h-178zM459 100q0 50 34 84.5t85 34.5t85.5 -34.5t34.5 -84.5t-34.5 -85t-85.5 -35t-85 35t-34 85z" />
<glyph unicode="@" horiz-adv-x="1800" d="M102 643q0 127 38 246t111.5 218.5t174 174.5t232.5 116.5t280 41.5q169 0 312.5 -62.5t241 -169.5t152 -252.5t54.5 -308.5q0 -102 -30 -190t-77 -146.5t-105 -101t-112 -61.5t-100 -19q-50 0 -93 14.5t-80 44.5t-57.5 85.5t-17.5 129.5q-39 -56 -110.5 -93.5 t-141.5 -37.5q-100 0 -173.5 56.5t-105 149t-18.5 198.5q22 159 135.5 268t266.5 109q71 0 134 -38t83 -93l22 112h150l-82 -616q-18 -125 90 -125q42 0 86.5 25t82 69t61.5 110.5t24 141.5q0 128 -42.5 243t-118.5 201.5t-188.5 137.5t-244.5 51q-139 0 -262.5 -49 t-212 -133t-140 -200.5t-51.5 -246.5q0 -137 38 -247.5t101 -182.5t149.5 -120t179 -68.5t194.5 -20.5h41v-170q-20 -2 -55 -2q-182 0 -333.5 57.5t-258 162t-165.5 256t-59 335.5zM645 670q-13 -93 29.5 -166.5t126.5 -73.5q85 0 150.5 73t76.5 165q12 91 -32.5 161 t-123.5 70q-85 0 -150.5 -69t-76.5 -160z" />
<glyph unicode="A" horiz-adv-x="1376" d="M166 0v997q0 138 41.5 248t114 179t166.5 105t202 36q107 0 200.5 -36t165.5 -105t114 -179t42 -248v-997h-180v426h-682v-426h-184zM350 604h682v375q-1 196 -91.5 299.5t-250.5 103.5q-168 0 -254 -102t-86 -301v-375z" />
<glyph unicode="B" horiz-adv-x="1312" d="M193 0v1536h518q211 0 330.5 -109.5t119.5 -293.5q0 -104 -51.5 -188t-140.5 -114v-10q8 0 33 -10t64 -38t73.5 -68.5t60 -111.5t25.5 -157q0 -203 -123.5 -319.5t-341.5 -116.5h-567zM373 178h172q89 0 137 1.5t115.5 8.5t102.5 23.5t71.5 44.5t51.5 73t15 107 q0 53 -13 94.5t-34.5 70.5t-58 49.5t-74 32.5t-92.5 19t-104 9t-117 2h-172v-535zM373 885h340q115 0 189.5 71t74.5 177q0 104 -67.5 167.5t-196.5 63.5h-340v-479z" />
<glyph unicode="C" horiz-adv-x="1509" d="M82 766q0 164 61 312t165 255.5t249.5 170.5t308.5 63q183 0 330.5 -77.5t245.5 -215.5l-150 -111q-159 217 -426 217q-125 0 -236 -49t-189.5 -132.5t-124.5 -196t-46 -236.5q0 -163 78.5 -302.5t217 -222.5t304.5 -83q285 0 451 245l145 -114q-96 -150 -249.5 -235 t-346.5 -85q-217 0 -398.5 106.5t-285.5 289.5t-104 401z" />
<glyph unicode="D" horiz-adv-x="1501" d="M193 0v1536h430q163 0 310 -59.5t253 -161.5t168.5 -245t62.5 -304q0 -217 -105.5 -393t-287 -274.5t-401.5 -98.5h-430zM377 180h209q292 0 467.5 159.5t175.5 426.5q0 169 -77 304t-216 211.5t-313 76.5h-246v-1178z" />
<glyph unicode="E" horiz-adv-x="1294" d="M193 0v1536h1001v-178h-817v-539h680v-178h-680v-461h833v-180h-1017z" />
<glyph unicode="F" horiz-adv-x="1241" d="M193 0v1536h981v-178h-797v-539h659v-178h-659v-641h-184z" />
<glyph unicode="G" horiz-adv-x="1622" d="M86 766q0 164 61 312t165 255.5t249.5 170.5t308.5 63q185 0 339 -78t251 -215l-149 -111q-70 102 -185.5 160.5t-255.5 58.5q-167 0 -304 -82.5t-214.5 -223.5t-77.5 -310q0 -163 78 -303.5t217 -224.5t305 -84q264 0 431 120v367h-408v178h586v-631 q-113 -110 -271 -164.5t-338 -54.5q-217 0 -398.5 106.5t-285.5 289.5t-104 401z" />
<glyph unicode="H" horiz-adv-x="1540" d="M193 0v1536h184v-717h786v717h185v-1536h-185v639h-786v-639h-184z" />
<glyph unicode="I" horiz-adv-x="569" d="M193 0v1536h184v-1536h-184z" />
<glyph unicode="J" horiz-adv-x="1091" d="M25 207l141 110q16 -22 37 -43.5t57.5 -52.5t86.5 -50t102 -19q70 0 122 19.5t91 64t59 122.5t20 189v989h185v-989q-1 -142 -29 -248.5t-72 -168t-109 -99t-127.5 -50t-139.5 -12.5q-244 0 -424 238z" />
<glyph unicode="K" horiz-adv-x="1343" d="M193 0v1536h180v-852l665 852h226l-519 -664l576 -872h-225l-473 723l-250 -315v-408h-180z" />
<glyph unicode="L" horiz-adv-x="1216" d="M193 0v1536h184v-1356h797v-180h-981z" />
<glyph unicode="M" horiz-adv-x="1941" d="M195 0v1569l784 -817l770 817v-1569h-182v1116q-90 -97 -323.5 -345.5t-264.5 -281.5l-606 627v-1116h-178z" />
<glyph unicode="N" horiz-adv-x="1587" d="M193 0v1571l1019 -1137v1102h183v-1571l-1020 1133v-1098h-182z" />
<glyph unicode="O" horiz-adv-x="1769" d="M94 766q0 164 61.5 312t166.5 255.5t251.5 170.5t309.5 63q164 0 311 -63t252 -170.5t167 -255.5t62 -312q0 -163 -62 -310.5t-167 -254t-252 -169.5t-311 -63q-163 0 -309.5 63t-251.5 169.5t-166.5 254t-61.5 310.5zM281 766q0 -121 46.5 -232.5t126.5 -194t192 -132 t237 -49.5q167 0 307 83.5t219.5 223.5t79.5 301q0 126 -47 240t-127.5 196t-193 130t-238.5 48q-167 0 -305.5 -81.5t-217.5 -222.5t-79 -310z" />
<glyph unicode="P" horiz-adv-x="1314" d="M193 0v1536h483q161 0 293 -71.5t209 -201t77 -292.5q0 -159 -77 -284t-209 -193t-293 -68h-301v-426h-182zM375 604h301q165 0 278 101.5t113 265.5q0 166 -113.5 276.5t-277.5 110.5h-301v-754z" />
<glyph unicode="Q" horiz-adv-x="1792" d="M94 766q0 164 61.5 312t166.5 255.5t251.5 170.5t309.5 63q164 0 311 -63t252 -170.5t167 -255.5t62 -312q0 -287 -176 -504l199 -196l-121 -119l-197 196q-216 -174 -497 -174q-163 0 -309.5 63t-251.5 169.5t-166.5 254t-61.5 310.5zM283 766q0 -121 46.5 -232.5 t125.5 -194t191 -132t237 -49.5q203 0 362 121l-194 194l118 119l195 -195q125 167 125 369q0 126 -47 240t-127.5 196t-193 130t-238.5 48q-167 0 -305 -81.5t-216.5 -222.5t-78.5 -310z" />
<glyph unicode="R" horiz-adv-x="1343" d="M193 0v1536h483q121 0 227 -40t184 -110.5t123 -174.5t45 -226q0 -164 -84.5 -305.5t-248.5 -220.5l292 -459h-219l-270 426h-350v-426h-182zM375 604h301q165 0 278 104.5t113 268.5q0 165 -113 273t-278 108h-301v-754z" />
<glyph unicode="S" horiz-adv-x="1173" d="M76 289l141 110q162 -243 385 -243h16q115 5 197 78t82 176q0 47 -18 86.5t-47 69.5t-81.5 60t-106.5 53t-136 54q-96 36 -162.5 73t-121.5 89t-82 123t-27 162q0 69 30 137t84 124t138.5 91t183.5 35q69 0 126.5 -8.5t123 -30.5t127 -67t116.5 -113l-149 -111 q-75 83 -154.5 115t-189.5 32q-115 0 -182.5 -60.5t-67.5 -141.5q0 -36 4.5 -60t22 -55.5t50 -57t92.5 -56.5t146 -62q88 -32 151 -60t128 -70t104.5 -89.5t65 -115t25.5 -148.5q0 -84 -34.5 -163.5t-95.5 -140.5t-151.5 -98t-194.5 -37q-178 0 -308.5 82.5t-229.5 237.5z " />
<glyph unicode="T" horiz-adv-x="1232" d="M43 1356v180h1147v-180h-481v-1356h-185v1356h-481z" />
<glyph unicode="U" horiz-adv-x="1533" d="M168 539v997h184v-979q0 -181 120.5 -289t295.5 -108q107 0 200 46.5t153 139t61 211.5v979h184v-997q0 -110 -35 -204t-94.5 -160t-137 -113t-161.5 -69t-170 -22q-87 0 -172 22t-162.5 69t-136.5 113t-94 160t-35 204z" />
<glyph unicode="V" horiz-adv-x="1353" d="M20 1536h197l453 -1079h10l457 1079h198l-657 -1563z" />
<glyph unicode="W" horiz-adv-x="1890" d="M23 1536h184l448 -1106h9l190 471l-250 635h189l217 -555l221 -553h8l436 1108h195l-637 -1563l-279 699h-12l-283 -699z" />
<glyph unicode="X" horiz-adv-x="1351" d="M27 0l538 813l-473 723h215l369 -559l375 559h217l-484 -723l543 -813h-223l-428 647l-428 -647h-221z" />
<glyph unicode="Y" horiz-adv-x="1314" d="M25 1536h206l422 -821l434 821h205l-547 -1026v-510h-184v510z" />
<glyph unicode="Z" horiz-adv-x="1300" d="M25 0l923 1356h-792v180h1122l-913 -1354h890v-182h-1230z" />
<glyph unicode="[" horiz-adv-x="655" d="M160 -211v1798h385v-178h-205v-1442h205v-178h-385z" />
<glyph unicode="\" horiz-adv-x="1069" d="M72 1536h204l725 -1536h-206z" />
<glyph unicode="]" horiz-adv-x="655" d="M102 -33h205v1442h-205v178h385v-1798h-385v178z" />
<glyph unicode="^" horiz-adv-x="888" d="M66 1270l311 315h112l316 -315h-199l-174 143l-168 -143h-198z" />
<glyph unicode="_" horiz-adv-x="1273" d="M43 0h1192v-182h-1192v182z" />
<glyph unicode="`" horiz-adv-x="1126" d="M274 1536h242l240 -240h-242z" />
<glyph unicode="a" d="M66 557q0 165 71 299.5t199 211.5t287 77q112 0 220 -60t154 -147l15 178h164v-1116h-164l-15 178q-47 -88 -154.5 -147.5t-219.5 -59.5q-243 0 -400 165.5t-157 420.5zM252 557q0 -170 105 -286.5t270 -116.5q164 0 269 116.5t105 286.5q0 169 -108.5 289.5 t-265.5 120.5q-164 0 -269.5 -119.5t-105.5 -290.5z" />
<glyph unicode="b" horiz-adv-x="1361" d="M164 0v1536h178v-598q46 87 154.5 147t220.5 60q159 0 287 -77t199 -211.5t71 -299.5q0 -255 -157 -420.5t-400 -165.5q-112 0 -220 59.5t-155 147.5l-14 -178h-164zM336 557q0 -170 105 -286.5t270 -116.5q164 0 269 116.5t105 286.5q0 171 -105 290.5t-269 119.5 q-157 0 -266 -120.5t-109 -289.5z" />
<glyph unicode="c" horiz-adv-x="1126" d="M63 555q0 162 76.5 297.5t209.5 214t292 78.5q135 0 244 -57t180 -158l-135 -103q-122 140 -289 140q-164 0 -280.5 -122.5t-116.5 -289.5q0 -170 118 -286.5t283 -116.5q186 0 305 155l133 -102q-71 -111 -183.5 -173.5t-254.5 -62.5q-160 0 -294 78t-211 212.5 t-77 295.5z" />
<glyph unicode="d" horiz-adv-x="1353" d="M80 557q0 165 71 299.5t199 211.5t287 77q112 0 220.5 -60t154.5 -147v598h178v-1536h-164l-14 178q-47 -88 -155 -147.5t-220 -59.5q-243 0 -400 165.5t-157 420.5zM266 557q0 -170 105 -286.5t270 -116.5t270 116.5t105 286.5q0 169 -109 289.5t-266 120.5 q-164 0 -269.5 -119.5t-105.5 -290.5z" />
<glyph unicode="e" horiz-adv-x="1155" d="M66 555q0 164 64 298t186 213t280 79q142 0 255.5 -74t176 -204.5t62.5 -291.5v-51h-842q0 -153 102 -262.5t246 -109.5q222 0 315 139l142 -109q-68 -98 -186.5 -155.5t-270.5 -57.5q-118 0 -218.5 47.5t-168 128t-105.5 187t-38 223.5zM254 690h653q-31 126 -115 201.5 t-196 75.5q-128 0 -220.5 -75t-121.5 -202z" />
<glyph unicode="f" horiz-adv-x="798" d="M20 940v176h154v152q0 75 26.5 133.5t72 94t102 53.5t119.5 18q200 0 313 -148l-139 -104q-30 36 -79 56t-100 20q-49 0 -92 -31t-43 -92v-152h301v-176h-301v-940h-180v940h-154z" />
<glyph unicode="g" horiz-adv-x="1327" d="M80 557q0 165 71 299.5t199 211.5t287 77q112 0 220.5 -60t154.5 -147l14 178h164v-1071q0 -161 -76.5 -295.5t-210 -212.5t-293.5 -78q-142 0 -254.5 62.5t-183.5 173.5l133 102q119 -155 305 -155q107 0 199.5 55t147.5 148t55 200v133q-47 -88 -155 -147.5t-220 -59.5 q-243 0 -400 165.5t-157 420.5zM264 557q0 -170 105 -286.5t270 -116.5t270 116.5t105 286.5q0 169 -109 289.5t-266 120.5q-164 0 -269.5 -119.5t-105.5 -290.5z" />
<glyph unicode="h" horiz-adv-x="1286" d="M164 0v1536h176v-614q66 97 163.5 160t219.5 63q67 0 126.5 -14t118.5 -51t101 -94.5t68 -152t26 -215.5v-618h-184v541q0 80 -6 139t-23.5 115.5t-47.5 92.5t-80.5 57.5t-119.5 21.5t-131.5 -27.5t-107 -72t-75.5 -92.5t-48 -97v-678h-176z" />
<glyph unicode="i" horiz-adv-x="487" d="M127 1376q0 50 34.5 84.5t84.5 34.5t84.5 -34.5t34.5 -84.5t-34.5 -84.5t-84.5 -34.5t-84.5 34.5t-34.5 84.5zM154 0v1116h182v-1116h-182z" />
<glyph unicode="j" horiz-adv-x="811" d="M-16 -346l133 100q24 -35 44.5 -58.5t60.5 -45t85 -21.5q101 0 145 58.5t44 210.5v1218h178v-1218q0 -104 -20 -182.5t-52.5 -127t-81.5 -78t-99.5 -40.5t-113.5 -11q-111 0 -192.5 56.5t-130.5 138.5zM469 1376q0 50 34.5 84.5t84.5 34.5t84.5 -34.5t34.5 -84.5 t-34.5 -84.5t-84.5 -34.5t-84.5 34.5t-34.5 84.5z" />
<glyph unicode="k" horiz-adv-x="1060" d="M164 0v1536h176v-1010l473 590h217l-385 -493l414 -623h-225l-310 477l-184 -229v-248h-176z" />
<glyph unicode="l" horiz-adv-x="505" d="M164 0v1536h178v-1536h-178z" />
<glyph unicode="m" horiz-adv-x="2017" d="M154 0v1116h168l14 -194q35 51 66 86t74.5 69t99 51t122.5 17q266 0 365 -223q91 123 185 173t229 50q67 0 124 -14t112.5 -51t94.5 -94.5t62.5 -151.5t23.5 -216v-618h-182v541q0 59 -1.5 101t-8 89.5t-17 80t-29.5 64t-46 50t-65.5 30t-88.5 11.5q-69 0 -128.5 -27 t-100.5 -73t-68 -92t-45 -97q0 -9 1 -29.5t1 -30.5v-618h-182v541q0 59 -1.5 101t-8 89.5t-17 80t-29.5 64t-46 50t-65.5 30t-88.5 11.5q-69 0 -128.5 -27t-100.5 -73t-68 -92t-45 -97v-678h-182z" />
<glyph unicode="n" horiz-adv-x="1280" d="M154 0v1116h165l17 -194q47 66 95.5 112t124 78.5t163.5 32.5q438 0 438 -527v-618h-182v541q0 73 -6 130.5t-24 114.5t-47.5 94.5t-80 61t-119.5 23.5t-131.5 -27.5t-107 -71.5t-75.5 -91.5t-48 -96.5v-678h-182z" />
<glyph unicode="o" horiz-adv-x="1292" d="M63 557q0 160 77.5 295t211.5 214t293 79t293.5 -79t212.5 -214t78 -295q0 -159 -78 -294t-212.5 -213.5t-293.5 -78.5t-293 78.5t-211.5 213t-77.5 294.5zM246 557q0 -168 116 -285.5t283 -117.5t284.5 118t117.5 285q0 110 -53.5 204.5t-146.5 150t-202 55.5 q-166 0 -282.5 -121t-116.5 -289z" />
<glyph unicode="p" horiz-adv-x="1353" d="M164 -512v1628h164l14 -178q47 88 155 147.5t220 59.5q243 0 400 -165.5t157 -420.5q0 -165 -71 -299.5t-199 -211.5t-287 -77q-112 0 -220.5 60t-154.5 147v-690h-178zM338 559q0 -168 109 -288.5t266 -120.5q164 0 269 119t105 290q0 170 -105 287t-269 117 t-269.5 -117t-105.5 -287z" />
<glyph unicode="q" horiz-adv-x="1353" d="M80 559q0 255 157 420.5t400 165.5q112 0 220 -59.5t155 -147.5l14 178h164v-1628h-178v690q-46 -87 -154.5 -147t-220.5 -60q-159 0 -287 77t-199 211.5t-71 299.5zM264 559q0 -171 105.5 -290t269.5 -119q157 0 266 120.5t109 288.5q0 170 -105.5 287t-269.5 117 t-269.5 -117t-105.5 -287z" />
<glyph unicode="r" horiz-adv-x="735" d="M154 0v1116h161l15 -194q56 98 154.5 160.5t230.5 62.5v-203q-78 0 -145 -24t-113.5 -63.5t-78 -84t-48.5 -92.5v-678h-176z" />
<glyph unicode="s" horiz-adv-x="944" d="M43 223l135 103q49 -68 138 -123.5t194 -55.5q83 0 145 43t62 115q0 38 -22.5 69.5t-67 56.5t-91.5 42.5t-114 36.5q-104 30 -174.5 67t-108 81t-53.5 90q-17 48 -16 104q0 126 109 210q110 84 278 83q253 0 399 -180l-137 -103q-56 60 -126 87.5t-136 27.5 q-82 0 -144.5 -33t-62.5 -96q0 -58 42 -92t142 -64q60 -18 103 -32t95 -35t87.5 -42t71.5 -50.5t57.5 -62t35 -74.5t13.5 -91q0 -139 -110 -236.5t-279 -97.5q-137 0 -264.5 68.5t-200.5 183.5z" />
<glyph unicode="t" horiz-adv-x="741" d="M25 940v176h135v256h176v-256h323v-176h-323v-643q0 -73 35.5 -111.5t83.5 -38.5q31 0 55.5 12t35 23.5t38.5 44.5l147 -110q-60 -79 -121.5 -113.5t-150.5 -34.5q-130 0 -214.5 79t-84.5 228v664h-135z" />
<glyph unicode="u" horiz-adv-x="1257" d="M102 498v618h183v-541q0 -79 6 -138.5t24 -116t48 -92t80.5 -57t119.5 -21.5t131.5 27.5t106 72t74 92t47.5 96.5v678h182v-1116h-168l-14 195q-70 -99 -166.5 -161.5t-212.5 -62.5q-67 0 -126.5 14t-118.5 51t-101.5 94.5t-68.5 152t-26 215.5z" />
<glyph unicode="v" horiz-adv-x="1064" d="M-2 1116h199l335 -743l336 743h199l-535 -1143z" />
<glyph unicode="w" horiz-adv-x="1611" d="M-2 1116h188l361 -745l170 395l-162 350h188l340 -741l336 741h195l-531 -1143l-278 602l-256 -602z" />
<glyph unicode="x" horiz-adv-x="1013" d="M-6 0l412 596l-355 520h213l242 -371l248 371h213l-359 -522l412 -594h-219l-293 444l-295 -444h-219z" />
<glyph unicode="y" horiz-adv-x="1013" d="M-4 1116h197l325 -743l307 743h193l-662 -1628h-180l246 672z" />
<glyph unicode="z" horiz-adv-x="1001" d="M0 0l664 940h-570v176h910l-658 -934h625v-182h-971z" />
<glyph unicode="{" horiz-adv-x="794" d="M78 643v68q120 42 174.5 135t54.5 248q0 136 32 237.5t90.5 161t133.5 88.5t168 29v-176q-124 -14 -184 -94t-60 -240q0 -46 -4.5 -93t-17.5 -102.5t-34 -99.5t-57 -79t-83 -46q58 -15 99 -60t61 -106.5t28 -118.5t8 -116q0 -168 62 -271.5t182 -103.5v-174 q-186 0 -305 148.5t-119 408.5q0 153 -53.5 234.5t-175.5 121.5z" />
<glyph unicode="|" horiz-adv-x="518" d="M182 -168v1901h183v-1901h-183z" />
<glyph unicode="}" horiz-adv-x="798" d="M78 -96q120 0 182 103.5t62 271.5q0 59 8 116t28 118.5t61 106.5t99 60q-47 11 -83 46t-57 79t-34 99.5t-17.5 102.5t-4.5 93q0 160 -60 240t-184 94v176q93 0 168 -29t133.5 -88.5t90.5 -161t32 -237.5q0 -155 54.5 -248t174.5 -135v-68q-122 -40 -175.5 -121.5 t-53.5 -234.5q0 -260 -119 -408.5t-305 -148.5v174z" />
<glyph unicode="&#xa1;" horiz-adv-x="514" d="M147 1436q0 50 34 85t85 35t86 -35t35 -85t-35 -84.5t-86 -34.5t-85 34.5t-34 84.5zM176 0v1149h182v-1149h-182z" />
<glyph unicode="&#xa2;" horiz-adv-x="1519" d="M96 752q0 187 89.5 352.5t241 273.5t333.5 138v196h192v-186q296 -25 514 -285l-143 -104q-89 98 -202 153.5t-230 55.5q-118 0 -230 -47.5t-196 -127t-135 -190.5t-51 -231q0 -168 82 -305t222.5 -214t307.5 -77q126 0 244.5 66.5t212.5 170.5l145 -112 q-104 -127 -243 -209t-298 -95v-190h-192v197q-289 43 -476.5 258t-187.5 512z" />
<glyph unicode="&#xa3;" horiz-adv-x="1413" d="M43 285q0 120 87 210.5t222 90.5q28 0 59 -4t47 -8l17 -3q-4 37 -10 78.5t-10 64.5l-4 23h-172v158h137q-33 131 -33 197q0 200 110.5 316t342.5 116q130 0 241 -65t180 -156l-147 -95q-115 142 -289 142q-142 0 -204 -66.5t-62 -179.5q0 -53 8.5 -105t17.5 -78l9 -26 h293v-158h-262q24 -157 36 -276q29 -30 77.5 -83.5t72 -78t63 -59.5t69 -50.5t71 -27.5t86.5 -12q94 0 164 45l110 -125q-64 -51 -129 -70.5t-166 -19.5q-222 0 -442 270q-33 -137 -106 -203.5t-205 -66.5q-129 0 -204 82.5t-75 222.5zM190 279q0 -56 31.5 -92.5t91.5 -36.5 q168 0 176 258q-30 13 -77 19.5t-78 4.5q-62 -4 -103 -52t-41 -101z" />
<glyph unicode="&#xa5;" horiz-adv-x="1351" d="M43 1495h186l443 -829l454 829h185l-402 -745h168v-160h-254l-65 -121h319v-156h-319v-313h-172v313h-316v156h316l-64 121h-252v160h166z" />
<glyph unicode="&#xa7;" horiz-adv-x="1310" d="M76 582q0 81 37 148t94.5 107.5t117 64t115.5 30.5q-1 1 -21 14t-39.5 27t-45.5 40.5t-45.5 55t-33 69.5t-13.5 85q0 131 127.5 232t324.5 101q135 0 245 -49t169 -147l-156 -100q-34 55 -98.5 86.5t-153.5 31.5q-47 0 -93 -9t-87 -27.5t-66.5 -49.5t-25.5 -71 q0 -74 77.5 -130.5t272.5 -123.5q453 -156 453 -457q0 -67 -18 -124t-46.5 -94.5t-63.5 -67.5t-70 -46.5t-63.5 -27t-46.5 -14.5l-18 -3l-16 -2q14 -7 37.5 -24.5t61 -52.5t63.5 -90t26 -116q0 -131 -127.5 -232t-324.5 -101q-135 0 -245 49t-169 147l156 101q34 -55 98 -87 t153 -32q64 0 124 15.5t104.5 52.5t44.5 89q0 77 -80.5 138.5t-275.5 120.5q-127 38 -228.5 104t-166 163t-64.5 206zM248 578q0 -76 46.5 -136.5t118 -95t148 -52.5t146.5 -18q94 0 169 21t125 72t50 125q0 78 -41 139t-108 96.5t-142 53.5t-152 18q-96 0 -173.5 -20.5 t-132 -72.5t-54.5 -130z" />
<glyph unicode="&#xa8;" horiz-adv-x="1134" d="M258 1399q0 54 35.5 89.5t89.5 35.5t89.5 -35.5t35.5 -89.5t-35.5 -89.5t-89.5 -35.5t-89.5 35.5t-35.5 89.5zM649 1399q0 54 35.5 89.5t89.5 35.5t89.5 -35.5t35.5 -89.5t-35.5 -89.5t-89.5 -35.5t-89.5 35.5t-35.5 89.5z" />
<glyph unicode="&#xab;" horiz-adv-x="1308" d="M104 557l357 533h217l-356 -533l356 -532h-217zM571 557l357 533h217l-357 -533l357 -532h-217z" />
<glyph unicode="&#xad;" horiz-adv-x="839" d="M133 526v179h567v-179h-567z" />
<glyph unicode="&#xaf;" horiz-adv-x="880" d="M174 1849v172h567v-172h-567z" />
<glyph unicode="&#xb0;" horiz-adv-x="858" d="M78 1171q0 144 106 249.5t246 105.5q147 0 250.5 -104t103.5 -251q0 -149 -102.5 -250.5t-251.5 -101.5t-250.5 101.5t-101.5 250.5zM240 1169q0 -78 54.5 -134t135.5 -56q77 0 135 55.5t58 134.5q0 78 -58 135.5t-135 57.5q-75 0 -132.5 -56.5t-57.5 -136.5z" />
<glyph unicode="&#xb1;" horiz-adv-x="1136" d="M49 887v180h412v414h182v-414h410v-180h-410v-420h-182v420h-412zM270 0v182h568v-182h-568z" />
<glyph unicode="&#xb4;" horiz-adv-x="985" d="M227 1296l240 240h242l-240 -240h-242z" />
<glyph unicode="&#xb7;" horiz-adv-x="432" d="M100 817q0 54 35.5 89.5t89.5 35.5t89.5 -35.5t35.5 -89.5t-35.5 -89.5t-89.5 -35.5t-89.5 35.5t-35.5 89.5z" />
<glyph unicode="&#xb8;" horiz-adv-x="679" d="M131 -109l135 414h205l-178 -414h-162z" />
<glyph unicode="&#xbb;" horiz-adv-x="1312" d="M170 25l356 532l-356 533h217l356 -533l-356 -532h-217zM637 25l356 532l-356 533h217l356 -533l-356 -532h-217z" />
<glyph unicode="&#xbf;" horiz-adv-x="1208" d="M100 453q0 45 11.5 88t26 73.5t43.5 68.5t46.5 57t54 56t48.5 50q14 15 48 48.5t47 49.5t32.5 46t27 62t7.5 72v37h178v-37q0 -62 -15.5 -116.5t-47.5 -101.5t-58 -77.5t-70.5 -74.5t-60.5 -62q-6 -7 -29.5 -32t-28.5 -31t-22 -26.5t-21.5 -28.5t-15 -26t-13.5 -30 t-6 -29.5t-3 -35.5q0 -81 26 -139.5t72 -91t100.5 -47.5t120.5 -15q147 0 237.5 87t90.5 236h178q0 -213 -143 -357t-363 -144q-232 0 -365 124.5t-133 346.5zM461 1448q0 50 35 85.5t86 35.5q50 0 84 -35.5t34 -85.5t-33.5 -84.5t-84.5 -34.5t-86 34.5t-35 84.5z" />
<glyph unicode="&#xc0;" horiz-adv-x="1331" d="M143 0v997q0 111 27 204.5t75.5 159.5t114.5 112.5t144 69t164 22.5q107 0 200.5 -36t165.5 -105t114 -179t42 -248v-997h-180v426h-682v-426h-185zM317 1878h242l240 -240h-242zM328 604h682v375q-1 196 -91.5 299.5t-250.5 103.5q-168 0 -254 -102t-86 -301v-375z" />
<glyph unicode="&#xc1;" horiz-adv-x="1331" d="M143 0v997q0 111 27 204.5t75.5 159.5t114.5 112.5t144 69t164 22.5q107 0 200.5 -36t165.5 -105t114 -179t42 -248v-997h-180v426h-682v-426h-185zM328 604h682v375q-1 196 -91.5 299.5t-250.5 103.5q-168 0 -254 -102t-86 -301v-375zM535 1638l239 240h242l-240 -240 h-241z" />
<glyph unicode="&#xc2;" horiz-adv-x="1331" d="M143 0v997q0 111 27 204.5t75.5 159.5t114.5 112.5t144 69t164 22.5q107 0 200.5 -36t165.5 -105t114 -179t42 -248v-997h-180v426h-682v-426h-185zM297 1638l311 316h113l315 -316h-198l-174 144l-168 -144h-199zM328 604h682v375q-1 196 -91.5 299.5t-250.5 103.5 q-168 0 -254 -102t-86 -301v-375z" />
<glyph unicode="&#xc3;" horiz-adv-x="1331" d="M143 0v997q0 111 27 204.5t75.5 159.5t114.5 112.5t144 69t164 22.5q107 0 200.5 -36t165.5 -105t114 -179t42 -248v-997h-180v426h-682v-426h-185zM328 604h682v375q-1 196 -91.5 299.5t-250.5 103.5q-168 0 -254 -102t-86 -301v-375zM348 1669v166q7 6 20.5 14.5 t54 22.5t81.5 14q66 0 158 -32.5t169 -32.5q41 0 79 11.5t56 23.5l17 12v-170q-7 -5 -20 -13.5t-52.5 -22t-79.5 -13.5q-46 0 -163.5 35.5t-163.5 35.5q-41 0 -80 -13t-58 -25z" />
<glyph unicode="&#xc4;" horiz-adv-x="1331" d="M143 0v997q0 111 27 204.5t75.5 159.5t114.5 112.5t144 69t164 22.5q107 0 200.5 -36t165.5 -105t114 -179t42 -248v-997h-180v426h-682v-426h-185zM328 604h682v375q-1 196 -91.5 299.5t-250.5 103.5q-168 0 -254 -102t-86 -301v-375zM346 1790q0 54 35.5 89.5 t89.5 35.5t89.5 -35.5t35.5 -89.5t-35.5 -89.5t-89.5 -35.5t-89.5 35.5t-35.5 89.5zM737 1790q0 54 35.5 89.5t89.5 35.5t89.5 -35.5t35.5 -89.5t-35.5 -89.5t-89.5 -35.5t-89.5 35.5t-35.5 89.5z" />
<glyph unicode="&#xc5;" horiz-adv-x="1331" d="M143 0v997q0 111 27 204.5t75.5 159.5t114.5 112.5t144 69t164 22.5q107 0 200.5 -36t165.5 -105t114 -179t42 -248v-997h-180v426h-682v-426h-185zM328 604h682v375q-1 196 -91.5 299.5t-250.5 103.5q-168 0 -254 -102t-86 -301v-375zM434 1866q0 97 67.5 164t164.5 67 t164 -67t67 -164t-67 -164.5t-164 -67.5t-164.5 67.5t-67.5 164.5zM565 1866q0 -42 29.5 -71.5t71.5 -29.5q43 0 73.5 30t30.5 71q0 43 -30.5 72.5t-73.5 29.5q-40 0 -70.5 -30.5t-30.5 -71.5z" />
<glyph unicode="&#xc6;" horiz-adv-x="2134" d="M166 0v997q0 138 41.5 248t114 179t166.5 105t202 36q97 0 186 -36.5t156 -103.5v111h1000v-178h-818v-539h680v-178h-680v-461h834v-180h-1016v426h-682v-426h-184zM350 604h682v375q-1 196 -91.5 299.5t-250.5 103.5q-168 0 -254 -102t-86 -301v-375z" />
<glyph unicode="&#xc7;" horiz-adv-x="1509" d="M82 766q0 164 61 312t165 255.5t249.5 170.5t308.5 63q183 0 330.5 -77.5t245.5 -215.5l-150 -111q-159 217 -426 217q-125 0 -236 -49t-189.5 -132.5t-124.5 -196t-46 -236.5q0 -163 78.5 -302.5t217 -222.5t304.5 -83q285 0 451 245l145 -114q-90 -139 -226.5 -222 t-309.5 -96l-129 -301h-162l100 310q-285 46 -471 267t-186 519z" />
<glyph unicode="&#xc8;" horiz-adv-x="1249" d="M170 0v1536h1001v-178h-817v-539h680v-178h-680v-461h834v-180h-1018zM365 1878h241l240 -240h-242z" />
<glyph unicode="&#xc9;" horiz-adv-x="1249" d="M170 0v1536h1001v-178h-817v-539h680v-178h-680v-461h834v-180h-1018zM471 1638l240 240h241l-239 -240h-242z" />
<glyph unicode="&#xca;" horiz-adv-x="1249" d="M170 0v1536h1001v-178h-817v-539h680v-178h-680v-461h834v-180h-1018zM307 1638l311 316h113l316 -316h-199l-174 144l-168 -144h-199z" />
<glyph unicode="&#xcb;" horiz-adv-x="1251" d="M172 0v1536h1002v-178h-818v-539h680v-178h-680v-461h834v-180h-1018zM358 1769q0 54 35.5 89.5t89.5 35.5t89.5 -35.5t35.5 -89.5t-35.5 -89t-89.5 -35t-89.5 35t-35.5 89zM750 1769q0 54 35 89.5t89 35.5t89.5 -35.5t35.5 -89.5t-35.5 -89t-89.5 -35t-89 35t-35 89z " />
<glyph unicode="&#xcc;" horiz-adv-x="524" d="M-86 1878h242l239 -240h-241zM170 0v1536h184v-1536h-184z" />
<glyph unicode="&#xcd;" horiz-adv-x="524" d="M129 1638l240 240h241l-239 -240h-242zM170 0v1536h184v-1536h-184z" />
<glyph unicode="&#xce;" horiz-adv-x="524" d="M-106 1638l311 316h112l316 -316h-199l-174 144l-168 -144h-198zM170 0v1536h184v-1536h-184z" />
<glyph unicode="&#xcf;" horiz-adv-x="524" d="M-59 1769q0 54 35.5 89.5t89.5 35.5t89 -35.5t35 -89.5t-35 -89t-89 -35t-89.5 35t-35.5 89zM170 0v1536h184v-1536h-184zM332 1769q0 54 35.5 89.5t89.5 35.5t89.5 -35.5t35.5 -89.5t-35.5 -89t-89.5 -35t-89.5 35t-35.5 89z" />
<glyph unicode="&#xd0;" horiz-adv-x="1523" d="M33 682v174h160v680h442q241 0 423.5 -94.5t281 -267t98.5 -400.5q0 -175 -52.5 -318t-152.5 -244.5t-252.5 -156.5t-345.5 -55h-442v682h-160zM377 182h239q332 0 486.5 151.5t154.5 440.5q0 281 -163.5 429.5t-477.5 148.5h-239v-496h356v-174h-356v-500z" />
<glyph unicode="&#xd1;" horiz-adv-x="1542" d="M170 0v1571l1020 -1137v1102h182v-1571l-1020 1133v-1098h-182zM440 1651v166q7 6 20.5 14.5t54 22.5t81.5 14q66 0 158.5 -33t169.5 -33q41 0 78.5 12t55.5 24l17 11v-170q-7 -5 -19.5 -13.5t-52 -22t-79.5 -13.5q-46 0 -164 36t-164 36q-41 0 -80 -13t-58 -25z" />
<glyph unicode="&#xd2;" horiz-adv-x="1724" d="M72 766q0 164 61.5 312t166.5 255.5t251 170.5t309 63q218 0 400.5 -107t287.5 -291t105 -403q0 -218 -105 -401t-287.5 -289.5t-400.5 -106.5q-217 0 -398.5 106.5t-285.5 289.5t-104 401zM258 766q0 -121 46.5 -232.5t126.5 -194t192 -132t237 -49.5q167 0 307 83.5 t219.5 223.5t79.5 301q0 126 -47 240t-127.5 196t-193 130t-238.5 48q-167 0 -305.5 -81.5t-217.5 -222.5t-79 -310zM518 1878h242l239 -240h-241z" />
<glyph unicode="&#xd3;" horiz-adv-x="1724" d="M72 766q0 164 61.5 312t166.5 255.5t251 170.5t309 63q218 0 400.5 -107t287.5 -291t105 -403q0 -218 -105 -401t-287.5 -289.5t-400.5 -106.5q-217 0 -398.5 106.5t-285.5 289.5t-104 401zM258 766q0 -121 46.5 -232.5t126.5 -194t192 -132t237 -49.5q167 0 307 83.5 t219.5 223.5t79.5 301q0 126 -47 240t-127.5 196t-193 130t-238.5 48q-167 0 -305.5 -81.5t-217.5 -222.5t-79 -310zM700 1638l240 240h242l-240 -240h-242z" />
<glyph unicode="&#xd4;" horiz-adv-x="1724" d="M72 766q0 164 61.5 312t166.5 255.5t251 170.5t309 63q218 0 400.5 -107t287.5 -291t105 -403q0 -218 -105 -401t-287.5 -289.5t-400.5 -106.5q-217 0 -398.5 106.5t-285.5 289.5t-104 401zM258 766q0 -121 46.5 -232.5t126.5 -194t192 -132t237 -49.5q167 0 307 83.5 t219.5 223.5t79.5 301q0 126 -47 240t-127.5 196t-193 130t-238.5 48q-167 0 -305.5 -81.5t-217.5 -222.5t-79 -310zM494 1638l311 316h113l315 -316h-199l-174 144l-168 -144h-198z" />
<glyph unicode="&#xd5;" horiz-adv-x="1724" d="M72 766q0 164 61.5 312t166.5 255.5t251 170.5t309 63q218 0 400.5 -107t287.5 -291t105 -403q0 -218 -105 -401t-287.5 -289.5t-400.5 -106.5q-217 0 -398.5 106.5t-285.5 289.5t-104 401zM258 766q0 -121 46.5 -232.5t126.5 -194t192 -132t237 -49.5q167 0 307 83.5 t219.5 223.5t79.5 301q0 126 -47 240t-127.5 196t-193 130t-238.5 48q-167 0 -305.5 -81.5t-217.5 -222.5t-79 -310zM545 1688v165q7 6 20 14.5t53.5 23t81.5 14.5q66 0 158.5 -33t169.5 -33q41 0 79 11.5t55 23.5l18 12v-170q-7 -5 -20 -13.5t-52.5 -22t-79.5 -13.5 q-46 0 -164 36t-164 36q-41 0 -79.5 -12.5t-56.5 -25.5z" />
<glyph unicode="&#xd6;" horiz-adv-x="1724" d="M72 766q0 164 61.5 312t166.5 255.5t251 170.5t309 63q218 0 400.5 -107t287.5 -291t105 -403q0 -218 -105 -401t-287.5 -289.5t-400.5 -106.5q-217 0 -398.5 106.5t-285.5 289.5t-104 401zM258 766q0 -121 46.5 -232.5t126.5 -194t192 -132t237 -49.5q167 0 307 83.5 t219.5 223.5t79.5 301q0 126 -47 240t-127.5 196t-193 130t-238.5 48q-167 0 -305.5 -81.5t-217.5 -222.5t-79 -310zM543 1769q0 54 35.5 89.5t89.5 35.5t89.5 -35.5t35.5 -89.5t-35.5 -89t-89.5 -35t-89.5 35t-35.5 89zM934 1769q0 54 35.5 89.5t89.5 35.5t89.5 -35.5 t35.5 -89.5t-35.5 -89t-89.5 -35t-89.5 35t-35.5 89z" />
<glyph unicode="&#xd7;" horiz-adv-x="1089" d="M143 989l121 119l277 -277l264 267l119 -119l-265 -266l275 -275l-121 -121l-274 275l-269 -266l-118 118l268 267z" />
<glyph unicode="&#xd8;" horiz-adv-x="1769" d="M94 766q0 164 61.5 312t166.5 255.5t251.5 170.5t309.5 63q281 0 497 -174l146 145l129 -129l-148 -147q168 -218 168 -496q0 -163 -62 -310.5t-167 -254t-252 -169.5t-311 -63q-282 0 -498 174l-145 -145l-129 129l147 147q-164 217 -164 492zM281 766q0 -199 114 -356 l852 850q-158 120 -364 120q-167 0 -305.5 -81.5t-217.5 -222.5t-79 -310zM522 281q159 -123 361 -123q167 0 307 83.5t219.5 223.5t79.5 301q0 202 -115 362z" />
<glyph unicode="&#xd9;" horiz-adv-x="1488" d="M145 539v997h185v-979q0 -91 33 -167t90 -125.5t132 -77t160 -27.5q107 0 200 46.5t153 139t61 211.5v979h184v-997q0 -110 -35 -204t-94.5 -160t-137 -113t-161.5 -69t-170 -22q-87 0 -172 22t-162.5 69t-136.5 113t-94 160t-35 204zM399 1878h242l240 -240h-242z" />
<glyph unicode="&#xda;" horiz-adv-x="1488" d="M145 539v997h185v-979q0 -91 33 -167t90 -125.5t132 -77t160 -27.5q107 0 200 46.5t153 139t61 211.5v979h184v-997q0 -110 -35 -204t-94.5 -160t-137 -113t-161.5 -69t-170 -22q-87 0 -172 22t-162.5 69t-136.5 113t-94 160t-35 204zM586 1638l239 240h242l-240 -240 h-241z" />
<glyph unicode="&#xdb;" horiz-adv-x="1488" d="M145 539v997h185v-979q0 -91 33 -167t90 -125.5t132 -77t160 -27.5q107 0 200 46.5t153 139t61 211.5v979h184v-997q0 -110 -35 -204t-94.5 -160t-137 -113t-161.5 -69t-170 -22q-87 0 -172 22t-162.5 69t-136.5 113t-94 160t-35 204zM375 1638l311 316h113l315 -316 h-199l-174 144l-168 -144h-198z" />
<glyph unicode="&#xdc;" horiz-adv-x="1488" d="M145 539v997h185v-979q0 -91 33 -167t90 -125.5t132 -77t160 -27.5q107 0 200 46.5t153 139t61 211.5v979h184v-997q0 -110 -35 -204t-94.5 -160t-137 -113t-161.5 -69t-170 -22q-87 0 -172 22t-162.5 69t-136.5 113t-94 160t-35 204zM424 1772q0 54 35.5 89t89.5 35 t89.5 -35t35.5 -89t-35.5 -89.5t-89.5 -35.5t-89.5 35.5t-35.5 89.5zM815 1772q0 54 35.5 89t89.5 35t89.5 -35t35.5 -89t-35.5 -89.5t-89.5 -35.5t-89.5 35.5t-35.5 89.5z" />
<glyph unicode="&#xdd;" horiz-adv-x="1269" d="M2 1536h207l422 -821l434 821h205l-547 -1026v-510h-184v510zM473 1638l240 240h241l-239 -240h-242z" />
<glyph unicode="&#xde;" horiz-adv-x="1314" d="M193 0v1536h184v-211h299q161 0 293 -72.5t209 -203t77 -293.5q0 -159 -77 -284t-209 -193t-293 -68h-299v-211h-184zM377 389h299q165 0 278 101.5t113 265.5q0 166 -113.5 278.5t-277.5 112.5h-299v-758z" />
<glyph unicode="&#xdf;" horiz-adv-x="1206" d="M164 0v1268q0 146 92.5 222.5t226.5 76.5q85 0 160 -22.5t135.5 -65t95.5 -113t35 -158.5q0 -43 -20 -85.5t-48.5 -74.5t-56.5 -60.5t-48 -54.5t-19 -46q0 -28 24.5 -53.5t63.5 -48.5t86 -49t93.5 -62.5t85.5 -82t63 -114t24 -151.5q0 -146 -92.5 -250.5t-255.5 -104.5 q-57 0 -107 16.5t-85.5 41t-68 61t-53 68t-40.5 71.5l143 95q2 -4 19.5 -32t26 -40.5t29.5 -36.5t38.5 -36t44.5 -22t55 -10q72 0 119 58.5t47 120.5q0 60 -24.5 108.5t-63.5 82t-86 63.5l-94 60t-86 62.5t-63.5 79.5t-24.5 105q0 40 20 78.5t48.5 68t56.5 58t48 59t19 59.5 q-1 63 -39.5 105.5t-92 59t-116.5 16.5q-49 0 -92 -31t-43 -92v-1268h-180z" />
<glyph unicode="&#xe0;" d="M66 557q0 -255 157 -420.5t400 -165.5q112 0 219.5 59.5t154.5 147.5l15 -178h164v1116h-164l-15 -178q-46 87 -154 147t-220 60q-159 0 -287 -77t-199 -211.5t-71 -299.5zM252 557q0 171 105.5 290.5t269.5 119.5q157 0 265.5 -120.5t108.5 -289.5q0 -170 -105 -286.5 t-269 -116.5q-165 0 -270 116.5t-105 286.5zM348 1505h242l239 -239h-241z" />
<glyph unicode="&#xe1;" d="M66 557q0 165 71 299.5t199 211.5t287 77q112 0 220 -60t154 -147l15 178h164v-1116h-164l-15 178q-47 -88 -154.5 -147.5t-219.5 -59.5q-243 0 -400 165.5t-157 420.5zM252 557q0 -170 105 -286.5t270 -116.5q164 0 269 116.5t105 286.5q0 169 -108.5 289.5 t-265.5 120.5q-164 0 -269.5 -119.5t-105.5 -290.5zM446 1266l240 239h242l-240 -239h-242z" />
<glyph unicode="&#xe2;" d="M66 557q0 -255 157 -420.5t400 -165.5q112 0 219.5 59.5t154.5 147.5l15 -178h164v1116h-164l-15 -178q-46 87 -154 147t-220 60q-159 0 -287 -77t-199 -211.5t-71 -299.5zM252 557q0 171 105.5 290.5t269.5 119.5q157 0 265.5 -120.5t108.5 -289.5q0 -170 -105 -286.5 t-269 -116.5q-165 0 -270 116.5t-105 286.5zM256 1266l311 315h113l315 -315h-198l-174 143l-168 -143h-199z" />
<glyph unicode="&#xe3;" d="M66 557q0 -255 157 -420.5t400 -165.5q112 0 219.5 59.5t154.5 147.5l15 -178h164v1116h-164l-15 -178q-46 87 -154 147t-220 60q-159 0 -287 -77t-199 -211.5t-71 -299.5zM252 557q0 171 105.5 290.5t269.5 119.5q157 0 265.5 -120.5t108.5 -289.5q0 -170 -105 -286.5 t-269 -116.5q-165 0 -270 116.5t-105 286.5zM305 1292v166q7 6 20.5 14.5t54 22.5t81.5 14q66 0 158 -32.5t169 -32.5q41 0 79 12t55 24l18 11v-170q-7 -5 -20 -13.5t-52.5 -22t-79.5 -13.5q-46 0 -163.5 35.5t-163.5 35.5q-41 0 -80 -12.5t-57 -25.5z" />
<glyph unicode="&#xe4;" d="M66 557q0 -255 157 -420.5t400 -165.5q112 0 219.5 59.5t154.5 147.5l15 -178h164v1116h-164l-15 -178q-46 87 -154 147t-220 60q-159 0 -287 -77t-199 -211.5t-71 -299.5zM252 557q0 171 105.5 290.5t269.5 119.5q157 0 265.5 -120.5t108.5 -289.5q0 -170 -105 -286.5 t-269 -116.5q-165 0 -270 116.5t-105 286.5zM303 1397q0 54 35.5 89.5t89.5 35.5t89.5 -35.5t35.5 -89.5t-35.5 -89.5t-89.5 -35.5t-89.5 35.5t-35.5 89.5zM694 1397q0 54 35.5 89.5t89.5 35.5t89.5 -35.5t35.5 -89.5t-35.5 -89.5t-89.5 -35.5t-89.5 35.5t-35.5 89.5z" />
<glyph unicode="&#xe5;" d="M66 557q0 165 71 299.5t199 211.5t287 77q112 0 220 -60t154 -147l15 178h164v-1116h-164l-15 178q-47 -88 -154.5 -147.5t-219.5 -59.5q-243 0 -400 165.5t-157 420.5zM252 557q0 -170 105 -286.5t270 -116.5q164 0 269 116.5t105 286.5q0 169 -108.5 289.5 t-265.5 120.5q-164 0 -269.5 -119.5t-105.5 -290.5zM393 1497q0 97 67.5 164.5t164.5 67.5t164 -67.5t67 -164.5t-67 -164t-164 -67t-164.5 67t-67.5 164zM524 1497q0 -41 29 -70.5t72 -29.5t73.5 29.5t30.5 70.5q0 43 -30.5 72.5t-73.5 29.5q-40 0 -70.5 -30.5t-30.5 -71.5 z" />
<glyph unicode="&#xe6;" horiz-adv-x="1853" d="M51 913q104 115 214.5 163t234.5 48q112 0 218.5 -46.5t170.5 -137.5q69 97 174 151t235 54q215 0 352.5 -162t137.5 -408v-51h-832v-45q15 -138 112.5 -232.5t229.5 -94.5q219 0 312 139l141 -109q-68 -99 -184.5 -156t-268.5 -57q-205 0 -342 131q-19 18 -33.5 35.5 t-21 27.5t-16.5 29t-15 27q-48 -89 -178 -168.5t-268 -79.5q-190 0 -287 119q-114 140 -65 307q42 145 178.5 221t341.5 76q30 0 78 -3.5t81 -6.5l33 -4q0 132 -83 200t-212 70q-83 0 -164.5 -36.5t-138.5 -102.5zM237 344.5q-5 -59.5 21.5 -107t79.5 -78t117 -24.5 q90 8 188 66t141 137v197q-50 13 -120 16t-142 -5t-137.5 -32.5t-99.5 -62.5q-43 -47 -48 -106.5zM961 690h645q-31 127 -113.5 202t-194.5 75q-128 0 -217.5 -75t-119.5 -202z" />
<glyph unicode="&#xe7;" horiz-adv-x="1126" d="M63 555q0 162 76.5 297.5t209.5 214t292 78.5q135 0 244 -57t180 -158l-135 -103q-122 140 -289 140q-164 0 -280.5 -122.5t-116.5 -289.5q0 -170 118 -286.5t283 -116.5q186 0 305 155l133 -102q-66 -102 -167.5 -163.5t-229.5 -70.5l-123 -288h-162l99 305 q-192 48 -314.5 205t-122.5 362z" />
<glyph unicode="&#xe8;" horiz-adv-x="1155" d="M66 555q0 164 64 298t186 213t280 79q142 0 255.5 -74t176 -204.5t62.5 -291.5v-51h-842q0 -153 102 -262.5t246 -109.5q222 0 315 139l142 -109q-68 -98 -186.5 -155.5t-270.5 -57.5q-118 0 -218.5 47.5t-168 128t-105.5 187t-38 223.5zM254 690h653q-31 126 -115 201.5 t-196 75.5q-128 0 -220.5 -75t-121.5 -202zM291 1505h241l240 -239h-242z" />
<glyph unicode="&#xe9;" horiz-adv-x="1155" d="M66 555q0 164 64 298t186 213t280 79q142 0 255.5 -74t176 -204.5t62.5 -291.5v-51h-842q0 -153 102 -262.5t246 -109.5q222 0 315 139l142 -109q-68 -98 -186.5 -155.5t-270.5 -57.5q-118 0 -218.5 47.5t-168 128t-105.5 187t-38 223.5zM254 690h653q-31 126 -115 201.5 t-196 75.5q-128 0 -220.5 -75t-121.5 -202zM408 1266l239 239h242l-240 -239h-241z" />
<glyph unicode="&#xea;" horiz-adv-x="1155" d="M66 555q0 164 64 298t186 213t280 79q142 0 255.5 -74t176 -204.5t62.5 -291.5v-51h-842q0 -153 102 -262.5t246 -109.5q222 0 315 139l142 -109q-68 -98 -186.5 -155.5t-270.5 -57.5q-118 0 -218.5 47.5t-168 128t-105.5 187t-38 223.5zM209 1264l311 315h113l315 -315 h-198l-175 143l-167 -143h-199zM254 690h653q-31 126 -115 201.5t-196 75.5q-128 0 -220.5 -75t-121.5 -202z" />
<glyph unicode="&#xeb;" horiz-adv-x="1155" d="M66 555q0 164 64 298t186 213t280 79q142 0 255.5 -74t176 -204.5t62.5 -291.5v-51h-842q0 -153 102 -262.5t246 -109.5q222 0 315 139l142 -109q-68 -98 -186.5 -155.5t-270.5 -57.5q-118 0 -218.5 47.5t-168 128t-105.5 187t-38 223.5zM254 690h653q-31 126 -115 201.5 t-196 75.5q-128 0 -220.5 -75t-121.5 -202zM258 1397q0 54 35.5 89.5t89.5 35.5t89.5 -35.5t35.5 -89.5t-35.5 -89.5t-89.5 -35.5t-89.5 35.5t-35.5 89.5zM649 1397q0 54 35.5 89.5t89.5 35.5t89.5 -35.5t35.5 -89.5t-35.5 -89.5t-89.5 -35.5t-89.5 35.5t-35.5 89.5z" />
<glyph unicode="&#xec;" horiz-adv-x="489" d="M-104 1505h243l240 -239h-244zM154 0v1116h182v-1116h-182z" />
<glyph unicode="&#xed;" horiz-adv-x="489" d="M113 1266l239 239h242l-240 -239h-241zM154 0v1116h182v-1116h-182z" />
<glyph unicode="&#xee;" horiz-adv-x="489" d="M-125 1266l311 315h113l315 -315h-198l-174 143l-168 -143h-199zM154 0v1116h182v-1116h-182z" />
<glyph unicode="&#xef;" horiz-adv-x="489" d="M-80 1399q0 54 37 91.5t92 37.5t93 -37.5t38 -91.5t-38 -92.5t-93 -38.5t-92 38t-37 93zM154 0v1116h182v-1116h-182zM311 1399q0 54 37 91.5t92 37.5t93 -37.5t38 -91.5t-38 -92.5t-93 -38.5t-92 38t-37 93z" />
<glyph unicode="&#xf0;" horiz-adv-x="1097" d="M55 381q-22 135 24.5 255.5t149 202t238.5 105.5q50 6 96 0.5t76 -18.5q-50 80 -152 215l-217 -121l-73 133l196 109q-47 57 -104.5 120.5t-97 105.5t-44.5 48h218q3 -3 32.5 -34.5t68 -74.5t73.5 -84l151 87l76 -134l-131 -73q100 -133 250 -349q129 -173 151 -325 q23 -134 -23 -258t-148 -208.5t-236 -107.5q-202 -35 -369.5 83.5t-204.5 322.5zM225 408q23 -130 133.5 -208.5t239.5 -56.5q134 25 210.5 134t53.5 241q-23 130 -128.5 204t-237.5 52q-133 -23 -212 -129t-59 -237z" />
<glyph unicode="&#xf1;" horiz-adv-x="1280" d="M154 0v1116h165l17 -194q47 66 95.5 112t124 78.5t163.5 32.5q438 0 438 -527v-618h-182v541q0 73 -6 130.5t-24 114.5t-47.5 94.5t-80 61t-119.5 23.5t-131.5 -27.5t-107 -71.5t-75.5 -91.5t-48 -96.5v-678h-182zM346 1298v166q7 6 20.5 14.5t54 23t81.5 14.5 q66 0 158 -33t169 -33q41 0 79 12t56 24l17 11v-170q-7 -5 -20 -13.5t-52.5 -22t-79.5 -13.5q-46 0 -163.5 36t-163.5 36q-41 0 -80 -13t-58 -26z" />
<glyph unicode="&#xf2;" horiz-adv-x="1292" d="M63 557q0 160 77.5 295t211.5 214t293 79t293.5 -79t212.5 -214t78 -295q0 -159 -78 -294t-212.5 -213.5t-293.5 -78.5t-293 78.5t-211.5 213t-77.5 294.5zM246 557q0 -168 116 -285.5t283 -117.5t284.5 118t117.5 285q0 110 -53.5 204.5t-146.5 150t-202 55.5 q-166 0 -282.5 -121t-116.5 -289zM317 1505h242l240 -239h-242z" />
<glyph unicode="&#xf3;" horiz-adv-x="1292" d="M63 557q0 160 77.5 295t211.5 214t293 79t293.5 -79t212.5 -214t78 -295q0 -159 -78 -294t-212.5 -213.5t-293.5 -78.5t-293 78.5t-211.5 213t-77.5 294.5zM246 557q0 -168 116 -285.5t283 -117.5t284.5 118t117.5 285q0 110 -53.5 204.5t-146.5 150t-202 55.5 q-166 0 -282.5 -121t-116.5 -289zM453 1266l239 239h242l-240 -239h-241z" />
<glyph unicode="&#xf4;" horiz-adv-x="1292" d="M63 557q0 160 77.5 295t211.5 214t293 79t293.5 -79t212.5 -214t78 -295q0 -159 -78 -294t-212.5 -213.5t-293.5 -78.5t-293 78.5t-211.5 213t-77.5 294.5zM246 557q0 -168 116 -285.5t283 -117.5t284.5 118t117.5 285q0 110 -53.5 204.5t-146.5 150t-202 55.5 q-166 0 -282.5 -121t-116.5 -289zM276 1266l312 315h112l316 -315h-199l-174 143l-168 -143h-199z" />
<glyph unicode="&#xf5;" horiz-adv-x="1292" d="M63 557q0 160 77.5 295t211.5 214t293 79t293.5 -79t212.5 -214t78 -295q0 -159 -78 -294t-212.5 -213.5t-293.5 -78.5t-293 78.5t-211.5 213t-77.5 294.5zM246 557q0 -168 116 -285.5t283 -117.5t284.5 118t117.5 285q0 110 -53.5 204.5t-146.5 150t-202 55.5 q-166 0 -282.5 -121t-116.5 -289zM328 1288v166q7 6 20 14.5t53.5 22.5t81.5 14q66 0 158.5 -32.5t169.5 -32.5q41 0 79 12t56 24l17 11v-170q-7 -5 -20 -13.5t-52.5 -22t-79.5 -13.5q-46 0 -164 35.5t-164 35.5q-41 0 -79.5 -12.5t-57.5 -25.5z" />
<glyph unicode="&#xf6;" horiz-adv-x="1292" d="M63 557q0 160 77.5 295t211.5 214t293 79t293.5 -79t212.5 -214t78 -295q0 -159 -78 -294t-212.5 -213.5t-293.5 -78.5t-293 78.5t-211.5 213t-77.5 294.5zM246 557q0 -168 116 -285.5t283 -117.5t284.5 118t117.5 285q0 110 -53.5 204.5t-146.5 150t-202 55.5 q-166 0 -282.5 -121t-116.5 -289zM324 1399q0 54 35.5 89.5t89.5 35.5t89 -35.5t35 -89.5t-35 -89.5t-89 -35.5t-89.5 35.5t-35.5 89.5zM715 1399q0 54 35.5 89.5t89.5 35.5t89.5 -35.5t35.5 -89.5t-35.5 -89.5t-89.5 -35.5t-89.5 35.5t-35.5 89.5z" />
<glyph unicode="&#xf7;" horiz-adv-x="929" d="M88 451v192h723v-192h-723zM330 100q0 50 34 84.5t85 34.5t85.5 -34.5t34.5 -84.5t-34.5 -85t-85.5 -35t-85 35t-34 85zM330 997q0 50 34 84.5t85 34.5t85.5 -34.5t34.5 -84.5t-34.5 -85t-85.5 -35t-85 35t-34 85z" />
<glyph unicode="&#xf8;" horiz-adv-x="1294" d="M57 100l115 115q-109 149 -109 342q0 160 77.5 295t211.5 214t293 79q189 0 344 -113l131 131l121 -121l-131 -131q119 -158 119 -354q0 -159 -78 -294t-212.5 -213.5t-293.5 -78.5q-198 0 -354 121l-113 -112zM246 557q0 -117 57 -211l555 555q-98 66 -213 66 q-166 0 -282.5 -121t-116.5 -289zM420 221q98 -67 225 -67q167 0 284.5 118t117.5 285q0 123 -68 223z" />
<glyph unicode="&#xf9;" horiz-adv-x="1257" d="M102 498v618h183v-541q0 -79 6 -138.5t24 -116t48 -92t80.5 -57t119.5 -21.5t131.5 27.5t106 72t74 92t47.5 96.5v678h182v-1116h-168l-14 195q-70 -99 -166.5 -161.5t-212.5 -62.5q-67 0 -126.5 14t-118.5 51t-101.5 94.5t-68.5 152t-26 215.5zM287 1505h241l240 -239 h-242z" />
<glyph unicode="&#xfa;" horiz-adv-x="1257" d="M102 498v618h183v-541q0 -79 6 -138.5t24 -116t48 -92t80.5 -57t119.5 -21.5t131.5 27.5t106 72t74 92t47.5 96.5v678h182v-1116h-168l-14 195q-70 -99 -166.5 -161.5t-212.5 -62.5q-67 0 -126.5 14t-118.5 51t-101.5 94.5t-68.5 152t-26 215.5zM432 1266l240 239h241 l-239 -239h-242z" />
<glyph unicode="&#xfb;" horiz-adv-x="1257" d="M102 498v618h183v-541q0 -79 6 -138.5t24 -116t48 -92t80.5 -57t119.5 -21.5t131.5 27.5t106 72t74 92t47.5 96.5v678h182v-1116h-168l-14 195q-70 -99 -166.5 -161.5t-212.5 -62.5q-67 0 -126.5 14t-118.5 51t-101.5 94.5t-68.5 152t-26 215.5zM236 1266l311 315h112 l316 -315h-199l-174 143l-168 -143h-198z" />
<glyph unicode="&#xfc;" horiz-adv-x="1257" d="M102 498v618h183v-541q0 -79 6 -138.5t24 -116t48 -92t80.5 -57t119.5 -21.5t131.5 27.5t106 72t74 92t47.5 96.5v678h182v-1116h-168l-14 195q-70 -99 -166.5 -161.5t-212.5 -62.5q-67 0 -126.5 14t-118.5 51t-101.5 94.5t-68.5 152t-26 215.5zM285 1399q0 54 35.5 89.5 t89.5 35.5t89.5 -35.5t35.5 -89.5t-35.5 -89.5t-89.5 -35.5t-89.5 35.5t-35.5 89.5zM676 1399q0 54 35.5 89.5t89.5 35.5t89.5 -35.5t35.5 -89.5t-35.5 -89.5t-89.5 -35.5t-89.5 35.5t-35.5 89.5z" />
<glyph unicode="&#xfd;" horiz-adv-x="1013" d="M-4 1116h197l325 -743l307 743h193l-662 -1628h-180l246 672zM350 1266l240 239h241l-239 -239h-242z" />
<glyph unicode="&#xfe;" horiz-adv-x="1357" d="M164 -512v2048h182v-580q42 71 154.5 130t220.5 59q243 0 400 -165.5t157 -420.5q0 -165 -71 -299.5t-199 -211.5t-287 -77q-110 0 -221.5 58.5t-153.5 132.5v-674h-182zM346 559q0 -168 109 -286.5t266 -118.5q164 0 269.5 117.5t105.5 287.5q0 171 -105.5 289.5 t-269.5 118.5t-269.5 -118.5t-105.5 -289.5z" />
<glyph unicode="&#xff;" horiz-adv-x="1013" d="M-4 1116h197l325 -743l307 743h193l-662 -1628h-180l246 672zM188 1399q0 54 35.5 89.5t89.5 35.5t89.5 -35.5t35.5 -89.5t-35.5 -89.5t-89.5 -35.5t-89.5 35.5t-35.5 89.5zM580 1399q0 54 35.5 89.5t89.5 35.5t89 -35.5t35 -89.5t-35 -89.5t-89 -35.5t-89.5 35.5 t-35.5 89.5z" />
<glyph unicode="&#x152;" horiz-adv-x="2582" d="M86 766q0 164 61.5 312t166.5 255.5t251 170.5t309 63q181 0 338.5 -74.5t268.5 -206.5v250h1001v-178h-817v-539h680v-178h-680v-461h834v-180h-1018v248q-111 -130 -268.5 -204.5t-338.5 -74.5q-217 0 -398.5 106.5t-285.5 289.5t-104 401zM272 766q0 -121 46.5 -232.5 t126.5 -194t192 -132t237 -49.5t238.5 49.5t194 132t127.5 194t47 232.5q0 169 -80 310t-219.5 222.5t-307.5 81.5q-167 0 -305.5 -81.5t-217.5 -222.5t-79 -310z" />
<glyph unicode="&#x153;" horiz-adv-x="2113" d="M59 557q0 160 77.5 295t211.5 214t293 79q148 0 275.5 -70.5t207.5 -189.5q69 122 184.5 191t264.5 69q142 0 255 -74t175.5 -204.5t62.5 -291.5v-51h-841q0 -153 102 -262.5t246 -109.5q222 0 315 139l142 -109q-68 -98 -186.5 -155.5t-270.5 -57.5q-147 0 -262 69.5 t-185 190.5q-79 -119 -207 -188.5t-278 -69.5q-159 0 -293 78.5t-211.5 213t-77.5 294.5zM242 557q0 -168 116 -285.5t283 -117.5q166 0 282.5 117t118.5 284v2q0 168 -117.5 289t-283.5 121t-282.5 -121t-116.5 -289zM1231 690h653q-31 126 -115 201.5t-196 75.5 q-128 0 -220.5 -75t-121.5 -202z" />
<glyph unicode="&#x178;" horiz-adv-x="1269" d="M2 1536h207l422 -821l434 821h205l-547 -1026v-510h-184v510zM313 1716q0 54 35.5 89.5t89.5 35.5t89.5 -35.5t35.5 -89.5t-35.5 -89.5t-89.5 -35.5t-89.5 35.5t-35.5 89.5zM705 1716q0 54 35 89.5t89 35.5t89.5 -35.5t35.5 -89.5t-35.5 -89.5t-89.5 -35.5t-89 35.5 t-35 89.5z" />
<glyph unicode="&#x2c6;" horiz-adv-x="890" d="M66 1270l311 315h112l316 -315h-199l-174 143l-168 -143h-198z" />
<glyph unicode="&#x2dc;" horiz-adv-x="1001" d="M180 1554v166q7 6 20.5 14.5t54 23t81.5 14.5q66 0 158.5 -33t169.5 -33q41 0 78.5 12t55.5 24l17 11v-170q-7 -5 -19.5 -13.5t-52 -22t-79.5 -13.5q-46 0 -164 36t-164 36q-41 0 -80 -13t-58 -26z" />
<glyph unicode="&#x2000;" horiz-adv-x="1048" />
<glyph unicode="&#x2001;" horiz-adv-x="2097" />
<glyph unicode="&#x2002;" horiz-adv-x="1048" />
<glyph unicode="&#x2003;" horiz-adv-x="2097" />
<glyph unicode="&#x2004;" horiz-adv-x="699" />
<glyph unicode="&#x2005;" horiz-adv-x="524" />
<glyph unicode="&#x2006;" horiz-adv-x="349" />
<glyph unicode="&#x2007;" horiz-adv-x="349" />
<glyph unicode="&#x2008;" horiz-adv-x="262" />
<glyph unicode="&#x2009;" horiz-adv-x="419" />
<glyph unicode="&#x200a;" horiz-adv-x="116" />
<glyph unicode="&#x2010;" horiz-adv-x="839" d="M133 526v179h567v-179h-567z" />
<glyph unicode="&#x2011;" horiz-adv-x="839" d="M133 526v179h567v-179h-567z" />
<glyph unicode="&#x2012;" horiz-adv-x="839" d="M133 526v179h567v-179h-567z" />
<glyph unicode="&#x2013;" horiz-adv-x="964" d="M119 653v193h723v-193h-723z" />
<glyph unicode="&#x2014;" horiz-adv-x="1290" d="M94 653v193h1096v-193h-1096z" />
<glyph unicode="&#x2018;" horiz-adv-x="520" d="M168 932v604h172v-604h-172z" />
<glyph unicode="&#x2019;" horiz-adv-x="520" d="M178 932v604h172v-604h-172z" />
<glyph unicode="&#x201a;" horiz-adv-x="520" d="M180 0v604h172v-604h-172z" />
<glyph unicode="&#x201c;" horiz-adv-x="903" d="M182 932v604h172v-604h-172zM551 932v604h172v-604h-172z" />
<glyph unicode="&#x201d;" horiz-adv-x="903" d="M182 932v604h172v-604h-172zM551 932v604h172v-604h-172z" />
<glyph unicode="&#x201e;" horiz-adv-x="903" d="M182 0v604h172v-604h-172zM551 0v604h172v-604h-172z" />
<glyph unicode="&#x2026;" horiz-adv-x="1413" d="M72 100q0 54 35.5 89.5t89.5 35.5t89.5 -35.5t35.5 -89.5t-35.5 -89.5t-89.5 -35.5t-89.5 35.5t-35.5 89.5zM604 100q0 54 35.5 89.5t89.5 35.5t89.5 -35.5t35.5 -89.5t-35.5 -89.5t-89.5 -35.5t-89.5 35.5t-35.5 89.5zM1137 100q0 54 35.5 89.5t89.5 35.5t89 -35.5 t35 -89.5t-35 -89.5t-89 -35.5t-89.5 35.5t-35.5 89.5z" />
<glyph unicode="&#x202f;" horiz-adv-x="419" />
<glyph unicode="&#x2039;" horiz-adv-x="839" d="M119 750l356 491h227l-356 -491l373 -512h-230z" />
<glyph unicode="&#x203a;" horiz-adv-x="856" d="M201 238q176 246 372 512l-356 491h227l357 -491l-371 -512h-229z" />
<glyph unicode="&#x205f;" horiz-adv-x="524" />
<glyph unicode="&#x20ac;" horiz-adv-x="1550" d="M119 520v160h112q-2 45 -2 72l2 51h-112v162h137q63 248 255.5 404.5t451.5 156.5q169 0 292 -72.5t242 -214.5l-143 -104q-88 106 -181.5 157t-209.5 51q-181 0 -319 -104t-198 -274h459v-162h-491q-2 -18 -2 -53q0 -47 2 -70h491v-160h-459q57 -169 192 -267.5 t325 -98.5q65 0 123.5 18.5t110.5 54.5t92 73t89 91l146 -112q-120 -146 -254 -227t-307 -81q-268 0 -455 150t-250 399h-139z" />
<glyph unicode="&#x25fc;" horiz-adv-x="1116" d="M0 0v1116h1116v-1116h-1116z" />
</font>
</defs>
</svg>
